<svg xmlns="http://www.w3.org/2000/svg" xmlns:xlink="http://www.w3.org/1999/xlink" xmlns:lucid="lucid" width="500" height="200.69"><g transform="translate(-200 -300)" lucid:page-tab-id="0_0"><path d="M260 326c0-3.3 2.7-6 6-6h128c3.3 0 6 2.7 6 6v103.67c0 3.3-2.7 6-6 6H266c-3.3 0-6-2.7-6-6z" stroke="#000" stroke-opacity="0" stroke-width="3" fill="#fff" fill-opacity="0"/><use xlink:href="#a" transform="matrix(1,0,0,1,265,325) translate(23.495555555555605 70.90638888888881)"/><path d="M220 386c0-3.3 2.7-6 6-6h228c3.3 0 6 2.7 6 6v88.7c0 3.3-2.7 6-6 6H226c-3.3 0-6-2.7-6-6z" stroke="#000" stroke-opacity="0" stroke-width="3" fill="#fff" fill-opacity="0"/><use xlink:href="#b" transform="matrix(1,0,0,1,225,385) translate(89.92000000000004 63.812638888888785)"/><path d="M360 346c0-3.3 2.7-6 6-6h308c3.3 0 6 2.7 6 6v108.67c0 3.3-2.7 6-6 6H366c-3.3 0-6-2.7-6-6z" stroke="#000" stroke-opacity="0" stroke-width="3" fill="#fff" fill-opacity="0"/><use xlink:href="#c" transform="matrix(1,0,0,1,365,345) translate(3.444444444444514 63.218749999999986)"/><use xlink:href="#d" transform="matrix(1,0,0,1,365,345) translate(113.44444444444446 63.218749999999986)"/><defs><path fill="#333" d="M13 0v-20c79-1 88-14 94-115 9-152 27-304 27-457 0-39-16-52-66-55v-20h162l259 542 257-542h158v20c-92 12-73 15-67 97l29 412c6 88 7 89 17 102 11 14 38 16 78 16V0H685v-20c99-5 98-37 91-136l-28-416L479 0h-24L180-572c-9 161-29 320-29 483 0 46 24 66 85 69V0H13" id="e"/><use transform="matrix(0.08444444444444435,0,0,0.08444444444444435,0,0)" xlink:href="#e" id="a"/><path fill="#333" d="M24 0v-19c40 1 80-1 89-17 14-15 14-21 14-104v-392c0-76-2-77-16-94-14-16-45-22-84-21v-20h317v20c-15 1-20 2-40 2-87 3-88 5-88 108v436c0 58 3 62 55 62h120c79 0 87-4 141-73l35-45h19L504 0H24" id="f"/><use transform="matrix(0.0844444444444443,0,0,0.0844444444444443,0,0)" xlink:href="#f" id="b"/><path fill="#c92d39" d="M67-92c-6 74 69 96 125 60l13-39h15l-11 60C128 16 12 10 12-93c0-122 110-166 231-136l-9 59h-15v-34c-11-9-30-16-51-16-69 4-96 57-101 128" id="g"/><path fill="#c92d39" d="M58-16l21 4-2 12H8l41-234-16-4 2-12h64" id="h"/><path fill="#c92d39" d="M75-14c36-8 43-53 45-96 1-23-4-40-22-42-35 9-46 53-46 96 0 21 6 40 23 42zm93-86C168-39 132 4 71 4 29 4 6-22 6-66c0-62 36-104 96-104 43 0 66 27 66 70" id="i"/><path fill="#c92d39" d="M118-31C102 5 2 26 14-39l20-110-21-5 2-11h68L62-38c7 34 44 5 53-9 18-31 17-79 27-118h46L162-16l20 4-3 12h-62" id="j"/><path fill="#c92d39" d="M98-25C87-11 72 4 49 4 17 4 5-21 4-54c-1-72 43-130 119-111l11-69-28-4 2-12h76L143-15l17 4-2 11h-58zm20-119c-46-28-68 37-68 82 0 34 24 52 43 25 18-25 15-73 25-107" id="k"/><g id="c"><use transform="matrix(0.11111111111111105,0,0,0.11111111111111105,0,0)" xlink:href="#g"/><use transform="matrix(0.11111111111111105,0,0,0.11111111111111105,26.66666666666665,0)" xlink:href="#h"/><use transform="matrix(0.11111111111111105,0,0,0.11111111111111105,37.77777777777776,0)" xlink:href="#i"/><use transform="matrix(0.11111111111111105,0,0,0.11111111111111105,57.77777777777774,0)" xlink:href="#j"/><use transform="matrix(0.11111111111111105,0,0,0.11111111111111105,79.99999999999996,0)" xlink:href="#k"/></g><path fill="#0c7cba" d="M113-112c63 10 84-104 17-104h-12L99-112h14zm109-61c0 66-54 85-126 81L82-18l39 5-2 13H0l2-13 28-5 36-200-30-5 2-13c79 3 184-17 184 63" id="l"/><path fill="#0c7cba" d="M58-16l21 4-2 12H8l41-234-16-4 2-12h64" id="m"/><path fill="#0c7cba" d="M4-56c-1-80 62-132 143-106 7-3 13-7 24-6L145-16l19 6-2 10h-61v-24C89-11 75 4 51 4 17 4 5-22 4-56zm116-90c-48-23-67 38-70 84-2 36 29 52 46 24 2-3 5-6 7-9" id="n"/><path fill="#0c7cba" d="M116-165c22 0 56-7 42 26C128-75 87-21 52 37 36 63 6 88-36 74l7-42h11c-5 29 27 32 42 11 9-13 20-28 29-42L15-149l-11-5 2-11h54L86-53c14-28 38-48 43-84 2-12-7-14-15-17" id="o"/><path fill="#7ab648" d="M121-148c-51-19-69 39-70 86-1 25 13 50 35 33 6-4 11-10 16-17zM51 4C19 4 6-21 5-55c-2-93 70-133 166-107-15 66-20 142-42 201C113 80 34 87-7 64l4-44H7c2 25 18 37 45 37 45 1 37-49 49-82C89-12 75 4 51 4" id="p"/><path fill="#7ab648" d="M77-130c13-23 31-45 66-38l-10 59h-10l-8-24c-22 1-32 14-42 28L55 0H7l27-149-21-5 2-11h66" id="q"/><path fill="#7ab648" d="M75-14c36-8 43-53 45-96 1-23-4-40-22-42-35 9-46 53-46 96 0 21 6 40 23 42zm93-86C168-39 132 4 71 4 29 4 6-22 6-66c0-62 36-104 96-104 43 0 66 27 66 70" id="r"/><path fill="#7ab648" d="M118-31C102 5 2 26 14-39l20-110-21-5 2-11h68L62-38c7 34 44 5 53-9 18-31 17-79 27-118h46L162-16l20 4-3 12h-62" id="s"/><path fill="#7ab648" d="M144-170c70 0 21 104 18 154l21 4-3 12h-68l22-127c-7-34-45-7-53 8C63-87 64-39 54 0H7l26-149-15-5 2-11h59l-2 31c16-20 34-36 67-36" id="t"/><path fill="#7ab648" d="M98-25C87-11 72 4 49 4 17 4 5-21 4-54c-1-72 43-130 119-111l11-69-28-4 2-12h76L143-15l17 4-2 11h-58zm20-119c-46-28-68 37-68 82 0 34 24 52 43 25 18-25 15-73 25-107" id="u"/><g id="d"><use transform="matrix(0.11111111111111105,0,0,0.11111111111111105,0,0)" xlink:href="#l"/><use transform="matrix(0.11111111111111105,0,0,0.11111111111111105,24.33333333333332,0)" xlink:href="#m"/><use transform="matrix(0.11111111111111105,0,0,0.11111111111111105,35.44444444444443,0)" xlink:href="#n"/><use transform="matrix(0.11111111111111105,0,0,0.11111111111111105,55.444444444444414,0)" xlink:href="#o"/><use transform="matrix(0.11111111111111105,0,0,0.11111111111111105,73.11111111111107,0)" xlink:href="#p"/><use transform="matrix(0.11111111111111105,0,0,0.11111111111111105,93.11111111111106,0)" xlink:href="#q"/><use transform="matrix(0.11111111111111105,0,0,0.11111111111111105,108.6666666666666,0)" xlink:href="#r"/><use transform="matrix(0.11111111111111105,0,0,0.11111111111111105,128.6666666666666,0)" xlink:href="#s"/><use transform="matrix(0.11111111111111105,0,0,0.11111111111111105,150.8888888888888,0)" xlink:href="#t"/><use transform="matrix(0.11111111111111105,0,0,0.11111111111111105,173.111111111111,0)" xlink:href="#u"/></g></defs></g></svg>